<svg xmlns="http://www.w3.org/2000/svg" viewBox="0 0 128 128">
  <!-- Background -->
  <rect width="128" height="128" fill="#667eea" rx="24"/>

  <!-- Web/Spider theme -->
  <!-- Center circle -->
  <circle cx="64" cy="64" r="8" fill="#ffffff"/>

  <!-- Web spokes -->
  <line x1="64" y1="64" x2="64" y2="20" stroke="#ffffff" stroke-width="2"/>
  <line x1="64" y1="64" x2="95" y2="33" stroke="#ffffff" stroke-width="2"/>
  <line x1="64" y1="64" x2="108" y2="64" stroke="#ffffff" stroke-width="2"/>
  <line x1="64" y1="64" x2="95" y2="95" stroke="#ffffff" stroke-width="2"/>
  <line x1="64" y1="64" x2="64" y2="108" stroke="#ffffff" stroke-width="2"/>
  <line x1="64" y1="64" x2="33" y2="95" stroke="#ffffff" stroke-width="2"/>
  <line x1="64" y1="64" x2="20" y2="64" stroke="#ffffff" stroke-width="2"/>
  <line x1="64" y1="64" x2="33" y2="33" stroke="#ffffff" stroke-width="2"/>

  <!-- Web rings -->
  <circle cx="64" cy="64" r="20" fill="none" stroke="#ffffff" stroke-width="2"/>
  <circle cx="64" cy="64" r="32" fill="none" stroke="#ffffff" stroke-width="2"/>
  <circle cx="64" cy="64" r="44" fill="none" stroke="#ffffff" stroke-width="2"/>

  <!-- Document/page icon overlay -->
  <rect x="75" y="75" width="38" height="48" fill="#ffffff" rx="3"/>
  <rect x="75" y="75" width="38" height="12" fill="#764ba2" rx="3"/>
  <line x1="83" y1="95" x2="105" y2="95" stroke="#667eea" stroke-width="2"/>
  <line x1="83" y1="102" x2="105" y2="102" stroke="#667eea" stroke-width="2"/>
  <line x1="83" y1="109" x2="95" y2="109" stroke="#667eea" stroke-width="2"/>
</svg>
